<svg xmlns="http://www.w3.org/2000/svg" width="32" height="32" viewBox="0 0 32 32"><defs><style>.a{fill:#fff;opacity:0;}.b{fill:#44d62c;}.b,.c{fill-rule:evenodd;}.c{fill:#111;}</style></defs><rect class="a" width="32" height="32"/><g transform="translate(16 16)"><g transform="translate(-12 -12)"><path class="b" d="M12,0A12,12,0,1,1,0,12,12,12,0,0,1,12,0Z"/><path class="c" d="M205.6,317.7a7.219,7.219,0,0,0-.009,9.1l1.071-1.071a5.718,5.718,0,0,1,.009-6.954Zm11.205,0-1.071,1.071a5.714,5.714,0,0,1,.009,6.947l1.071,1.071A7.221,7.221,0,0,0,216.81,317.7Zm-5.6,3.052a1.5,1.5,0,1,1-1.5,1.5A1.5,1.5,0,0,1,211.206,320.754Zm-3.462-.907a4.223,4.223,0,0,0-.009,4.814l1.095-1.095a2.716,2.716,0,0,1,.009-2.627Zm6.923,0-1.095,1.095a2.716,2.716,0,0,1,.007,2.62l1.095,1.095a4.223,4.223,0,0,0,0-4.809Z" transform="translate(-199.206 -310.254)"/></g></g></svg>